<?xml version="1.0" encoding="utf-8" ?>
<svg baseProfile="full" height="300" version="1.1" width="800" xmlns="http://www.w3.org/2000/svg" xmlns:ev="http://www.w3.org/2001/xml-events" xmlns:xlink="http://www.w3.org/1999/xlink"><defs /><rect fill="#f8f9fa" height="450" rx="5" ry="5" width="800" x="0" y="0" /><text font-family="Arial" font-size="20" font-weight="bold" text-anchor="middle" x="400" y="30">Gambling Task Trial Structure</text><rect fill="#4daf4a" height="20" rx="3" ry="3" width="20" x="620" y="60" /><text font-family="Arial" font-size="14" text-anchor="start" x="650" y="75">Reward</text><rect fill="#e41a1c" height="20" rx="3" ry="3" width="20" x="620" y="90" /><text font-family="Arial" font-size="14" text-anchor="start" x="650" y="105">Loss</text><rect fill="#999999" height="20" rx="3" ry="3" width="20" x="620" y="120" /><text font-family="Arial" font-size="14" text-anchor="start" x="650" y="135">Neutral</text><rect fill="#377eb8" height="20" rx="3" ry="3" width="20" x="620" y="150" /><text font-family="Arial" font-size="14" text-anchor="start" x="650" y="165">Question Mark</text><rect fill="#ff7f00" height="20" rx="3" ry="3" width="20" x="620" y="180" /><text font-family="Arial" font-size="14" text-anchor="start" x="650" y="195">Feedback</text><rect fill="#984ea3" height="20" rx="3" ry="3" width="20" x="620" y="210" /><text font-family="Arial" font-size="14" text-anchor="start" x="650" y="225">ITI Fixation (+)</text><rect fill="#a6cee3" height="20" rx="3" ry="3" width="20" x="620" y="240" /><text font-family="Arial" font-size="14" text-anchor="start" x="650" y="255">Fixation Block (15s)</text><text font-family="Arial" font-size="16" font-weight="bold" x="50" y="80">Run 1</text><line stroke="#333" stroke-width="2" x1="50" x2="550" y1="120" y2="120" /><g id="rewardBlock"><rect fill="#377eb8" height="40" rx="2" ry="2" width="10" x="100" y="100" /><rect fill="#ff7f00" height="40" rx="1" ry="1" width="5" x="110" y="100" /><rect fill="#984ea3" height="40" rx="1" ry="1" width="5" x="115" y="100" /><rect fill="#377eb8" height="40" rx="2" ry="2" width="10" x="120" y="100" /><rect fill="#ff7f00" height="40" rx="1" ry="1" width="5" x="130" y="100" /><rect fill="#984ea3" height="40" rx="1" ry="1" width="5" x="135" y="100" /><rect fill="#377eb8" height="40" rx="2" ry="2" width="10" x="140" y="100" /><rect fill="#ff7f00" height="40" rx="1" ry="1" width="5" x="150" y="100" /><rect fill="#984ea3" height="40" rx="1" ry="1" width="5" x="155" y="100" /><rect fill="#377eb8" height="40" rx="2" ry="2" width="10" x="160" y="100" /><rect fill="#ff7f00" height="40" rx="1" ry="1" width="5" x="170" y="100" /><rect fill="#984ea3" height="40" rx="1" ry="1" width="5" x="175" y="100" /><rect fill="#4daf4a" fill-opacity="0.5" height="40" rx="2" ry="2" width="40" x="180" y="100" /><text font-family="Arial" font-size="10" text-anchor="middle" x="200" y="120">Mostly</text><text font-family="Arial" font-size="10" text-anchor="middle" x="200" y="130">Reward</text></g><rect fill="#a6cee3" height="40" rx="3" ry="3" width="50" x="220" y="100" /><text font-family="Arial" font-size="12" text-anchor="middle" x="245" y="150">Fixation</text><text font-family="Arial" font-size="12" text-anchor="middle" x="245" y="165">15s</text><g id="lossBlock"><rect fill="#377eb8" height="40" rx="2" ry="2" width="10" x="270" y="100" /><rect fill="#ff7f00" height="40" rx="1" ry="1" width="5" x="280" y="100" /><rect fill="#984ea3" height="40" rx="1" ry="1" width="5" x="285" y="100" /><rect fill="#377eb8" height="40" rx="2" ry="2" width="10" x="290" y="100" /><rect fill="#ff7f00" height="40" rx="1" ry="1" width="5" x="300" y="100" /><rect fill="#984ea3" height="40" rx="1" ry="1" width="5" x="305" y="100" /><rect fill="#377eb8" height="40" rx="2" ry="2" width="10" x="310" y="100" /><rect fill="#ff7f00" height="40" rx="1" ry="1" width="5" x="320" y="100" /><rect fill="#984ea3" height="40" rx="1" ry="1" width="5" x="325" y="100" /><rect fill="#377eb8" height="40" rx="2" ry="2" width="10" x="330" y="100" /><rect fill="#ff7f00" height="40" rx="1" ry="1" width="5" x="340" y="100" /><rect fill="#984ea3" height="40" rx="1" ry="1" width="5" x="345" y="100" /><rect fill="#e41a1c" fill-opacity="0.5" height="40" rx="2" ry="2" width="40" x="350" y="100" /><text font-family="Arial" font-size="10" text-anchor="middle" x="370" y="120">Mostly</text><text font-family="Arial" font-size="10" text-anchor="middle" x="370" y="130">Loss</text></g><text font-family="Arial" font-size="16" text-anchor="middle" x="410" y="120">...</text><rect fill="#a6cee3" height="40" rx="3" ry="3" width="50" x="440" y="100" /><text font-family="Arial" font-size="12" text-anchor="middle" x="465" y="150">Fixation</text><text font-family="Arial" font-size="12" text-anchor="middle" x="465" y="165">15s</text><text font-family="Arial" font-size="16" font-weight="bold" x="50" y="200">Run 2</text><line stroke="#333" stroke-width="2" x1="50" x2="550" y1="240" y2="240" /><use transform="translate(-170,120)" xlink:href="#lossBlock" /><rect fill="#a6cee3" height="40" rx="3" ry="3" width="50" x="220" y="220" /><text font-family="Arial" font-size="12" text-anchor="middle" x="245" y="270">Fixation</text><text font-family="Arial" font-size="12" text-anchor="middle" x="245" y="285">15s</text><use transform="translate(170,120)" xlink:href="#rewardBlock" /><text font-family="Arial" font-size="16" text-anchor="middle" x="410" y="240">...</text><rect fill="#a6cee3" height="40" rx="3" ry="3" width="50" x="440" y="220" /><text font-family="Arial" font-size="12" text-anchor="middle" x="465" y="270">Fixation</text><text font-family="Arial" font-size="12" text-anchor="middle" x="465" y="285">15s</text></svg>