<?xml version="1.0" encoding="utf-8" ?>
<svg baseProfile="tiny" height="250" version="1.2" width="800px" xmlns="http://www.w3.org/2000/svg" xmlns:ev="http://www.w3.org/2001/xml-events" xmlns:xlink="http://www.w3.org/1999/xlink"><defs /><rect fill="white" height="100%" width="100%" x="0" y="0" /><text font-family="Arial" font-size="20" font-weight="bold" text-anchor="middle" x="400" y="30">Working Memory Task Diagram</text><line stroke="black" stroke-width="2" x1="50" x2="750" y1="150" y2="150" /><polygon fill="black" points="750,150 740,145 740,155" /><text font-family="Arial" font-size="14" text-anchor="middle" x="725" y="180">Time →</text><text font-family="Arial" font-size="16" font-weight="bold" x="100" y="65">Block 1 (0-back)</text><rect fill="#6495ED" height="60" rx="5" ry="5" stroke="black" stroke-width="1" width="60" x="50" y="80" /><text font-family="Arial" font-size="14" text-anchor="middle" x="80.0" y="105">Cue</text><text font-family="Arial" font-size="12" text-anchor="middle" x="80.0" y="125">0-back</text><line stroke="black" stroke-width="1" x1="50" x2="50" y1="145" y2="155" /><rect fill="#3CB371" height="60" rx="5" ry="5" stroke="black" stroke-width="1" width="50" x="110" y="80" /><text font-family="Arial" font-size="14" text-anchor="middle" x="135.0" y="105">Nonlure</text><text font-family="Arial" font-size="12" text-anchor="middle" x="135.0" y="125">Stimulus</text><line stroke="black" stroke-width="1" x1="110" x2="110" y1="145" y2="155" /><rect fill="#FF7F50" height="60" rx="5" ry="5" stroke="black" stroke-width="1" width="50" x="160" y="80" /><text font-family="Arial" font-size="14" text-anchor="middle" x="185.0" y="105">Target</text><text font-family="Arial" font-size="12" text-anchor="middle" x="185.0" y="125">Stimulus</text><line stroke="black" stroke-width="1" x1="160" x2="160" y1="145" y2="155" /><rect fill="#3CB371" height="60" rx="5" ry="5" stroke="black" stroke-width="1" width="50" x="210" y="80" /><text font-family="Arial" font-size="14" text-anchor="middle" x="235.0" y="105">Nonlure</text><text font-family="Arial" font-size="12" text-anchor="middle" x="235.0" y="125">Stimulus</text><line stroke="black" stroke-width="1" x1="210" x2="210" y1="145" y2="155" /><text font-family="Arial" font-size="16" font-weight="bold" x="310" y="65">Block 2 (2-back)</text><rect fill="#6495ED" height="60" rx="5" ry="5" stroke="black" stroke-width="1" width="60" x="260" y="80" /><text font-family="Arial" font-size="14" text-anchor="middle" x="290.0" y="105">Cue</text><text font-family="Arial" font-size="12" text-anchor="middle" x="290.0" y="125">2-back</text><line stroke="black" stroke-width="1" x1="260" x2="260" y1="145" y2="155" /><rect fill="#3CB371" height="60" rx="5" ry="5" stroke="black" stroke-width="1" width="50" x="320" y="80" /><text font-family="Arial" font-size="14" text-anchor="middle" x="345.0" y="105">Nonlure</text><text font-family="Arial" font-size="12" text-anchor="middle" x="345.0" y="125">Stimulus</text><line stroke="black" stroke-width="1" x1="320" x2="320" y1="145" y2="155" /><rect fill="#FF7F50" height="60" rx="5" ry="5" stroke="black" stroke-width="1" width="50" x="370" y="80" /><text font-family="Arial" font-size="14" text-anchor="middle" x="395.0" y="105">Target</text><text font-family="Arial" font-size="12" text-anchor="middle" x="395.0" y="125">Stimulus</text><line stroke="black" stroke-width="1" x1="370" x2="370" y1="145" y2="155" /><rect fill="#9370DB" height="60" rx="5" ry="5" stroke="black" stroke-width="1" width="50" x="420" y="80" /><text font-family="Arial" font-size="14" text-anchor="middle" x="445.0" y="105">Lure</text><text font-family="Arial" font-size="12" text-anchor="middle" x="445.0" y="125">Stimulus</text><line stroke="black" stroke-width="1" x1="420" x2="420" y1="145" y2="155" /><rect fill="#3CB371" height="60" rx="5" ry="5" stroke="black" stroke-width="1" width="50" x="470" y="80" /><text font-family="Arial" font-size="14" text-anchor="middle" x="495.0" y="105">Nonlure</text><text font-family="Arial" font-size="12" text-anchor="middle" x="495.0" y="125">Stimulus</text><line stroke="black" stroke-width="1" x1="470" x2="470" y1="145" y2="155" /><rect fill="#D3D3D3" height="60" rx="5" ry="5" stroke="black" stroke-width="1" width="80" x="520" y="80" /><text font-family="Arial" font-size="14" text-anchor="middle" x="560.0" y="105">Fixation</text><text font-family="Arial" font-size="12" text-anchor="middle" x="560.0" y="125">Rest Period</text><line stroke="black" stroke-width="1" x1="520" x2="520" y1="145" y2="155" /><rect fill="#6495ED" height="15" stroke="black" stroke-width="1" width="15" x="100" y="200" /><text font-family="Arial" font-size="12" x="125" y="212">Cue</text><rect fill="#3CB371" height="15" stroke="black" stroke-width="1" width="15" x="220" y="200" /><text font-family="Arial" font-size="12" x="245" y="212">Nonlure Stim</text><rect fill="#FF7F50" height="15" stroke="black" stroke-width="1" width="15" x="340" y="200" /><text font-family="Arial" font-size="12" x="365" y="212">Target Stim</text><rect fill="#9370DB" height="15" stroke="black" stroke-width="1" width="15" x="460" y="200" /><text font-family="Arial" font-size="12" x="485" y="212">Lure Stim</text><rect fill="#D3D3D3" height="15" stroke="black" stroke-width="1" width="15" x="580" y="200" /><text font-family="Arial" font-size="12" x="605" y="212">Fixation Block</text></svg>