<?xml version="1.0" encoding="utf-8" ?>
<svg baseProfile="full" height="400px" version="1.1" width="800px" xmlns="http://www.w3.org/2000/svg" xmlns:ev="http://www.w3.org/2001/xml-events" xmlns:xlink="http://www.w3.org/1999/xlink"><defs /><rect fill="white" height="100%" width="100%" x="0" y="0" /><text font-family="Arial" font-size="24" font-weight="bold" text-anchor="middle" x="400" y="30">Social Interaction Task Timeline</text><line stroke="black" stroke-width="2" x1="50" x2="750" y1="200" y2="200" /><rect fill="#9BCD9B" height="60" stroke="black" stroke-width="1" width="110.52631578947368" x="50" y="170.0" /><text font-family="Arial" font-size="12" text-anchor="middle" x="105.26315789473685" y="205">Fixation</text><line stroke="black" stroke-width="1" x1="50" x2="50" y1="235.0" y2="245.0" /><rect fill="#6CA6CD" height="60" stroke="black" stroke-width="1" width="147.36842105263156" x="160.5263157894737" y="170.0" /><text font-family="Arial" font-size="12" text-anchor="middle" x="234.21052631578948" y="205">Mental Interact Vid</text><line stroke="black" stroke-width="1" x1="160.5263157894737" x2="160.5263157894737" y1="235.0" y2="245.0" /><rect fill="#CDAD9B" height="60" stroke="black" stroke-width="1" width="36.84210526315789" x="307.89473684210526" y="170.0" /><line stroke="black" stroke-width="1" x1="307.89473684210526" x2="307.89473684210526" y1="235.0" y2="245.0" /><rect fill="#9BCD9B" height="60" stroke="black" stroke-width="1" width="110.52631578947368" x="344.7368421052631" y="170.0" /><text font-family="Arial" font-size="12" text-anchor="middle" x="399.99999999999994" y="205">Fixation</text><line stroke="black" stroke-width="1" x1="344.7368421052631" x2="344.7368421052631" y1="235.0" y2="245.0" /><rect fill="#CDC6A1" height="60" stroke="black" stroke-width="1" width="147.36842105263156" x="455.2631578947368" y="170.0" /><text font-family="Arial" font-size="12" text-anchor="middle" x="528.9473684210526" y="205">Random Move Vid</text><line stroke="black" stroke-width="1" x1="455.2631578947368" x2="455.2631578947368" y1="235.0" y2="245.0" /><rect fill="#CDAD9B" height="60" stroke="black" stroke-width="1" width="36.84210526315789" x="602.6315789473683" y="170.0" /><line stroke="black" stroke-width="1" x1="602.6315789473683" x2="602.6315789473683" y1="235.0" y2="245.0" /><rect fill="#9BCD9B" height="60" stroke="black" stroke-width="1" width="110.52631578947368" x="639.4736842105262" y="170.0" /><text font-family="Arial" font-size="12" text-anchor="middle" x="694.7368421052631" y="205">Fixation</text><line stroke="black" stroke-width="1" x1="639.4736842105262" x2="639.4736842105262" y1="235.0" y2="245.0" /><line stroke="black" stroke-width="1" x1="750" x2="750" y1="235.0" y2="245.0" /><rect fill="#6CA6CD" height="20" stroke="black" stroke-width="1" width="20" x="100" y="75" /><text font-family="Arial" font-size="14" x="140" y="92">Mental Interaction Video (20s)</text><rect fill="#CDC6A1" height="20" stroke="black" stroke-width="1" width="20" x="100" y="105" /><text font-family="Arial" font-size="14" x="140" y="122">Random Movement Video (20s)</text><rect fill="#CDAD9B" height="20" stroke="black" stroke-width="1" width="20" x="400" y="75" /><text font-family="Arial" font-size="14" x="440" y="92">Response Window (5s)</text><rect fill="#9BCD9B" height="20" stroke="black" stroke-width="1" width="20" x="400" y="105" /><text font-family="Arial" font-size="14" x="440" y="122">Fixation Period (15s)</text><text font-family="Arial" font-size="14" font-weight="bold" text-anchor="middle" x="400" y="300">Response Options:</text><text font-family="Arial" font-size="12" text-anchor="middle" x="250.0" y="325">Social Interaction</text><text font-family="Arial" font-size="12" text-anchor="middle" x="400.0" y="325">Not Sure</text><text font-family="Arial" font-size="12" text-anchor="middle" x="550.0" y="325">No Interaction (Random)</text></svg>