<?xml version="1.0" encoding="utf-8" ?>
<svg baseProfile="tiny" height="400px" version="1.2" width="1050px" xmlns="http://www.w3.org/2000/svg" xmlns:ev="http://www.w3.org/2001/xml-events" xmlns:xlink="http://www.w3.org/1999/xlink"><defs /><rect fill="white" height="100%" width="100%" x="0" y="0" /><text font-family="Arial" font-size="20" font-weight="bold" text-anchor="middle" x="500" y="30">Language Task: Block Structure</text><line stroke="black" stroke-width="2" x1="50" x2="852" y1="320" y2="320" /><line stroke="black" stroke-width="1" x1="50" x2="50" y1="315" y2="325" /><line stroke="black" stroke-width="1" x1="150" x2="150" y1="315" y2="325" /><line stroke="black" stroke-width="1" x1="250" x2="250" y1="315" y2="325" /><line stroke="black" stroke-width="1" x1="350" x2="350" y1="315" y2="325" /><line stroke="black" stroke-width="1" x1="450" x2="450" y1="315" y2="325" /><line stroke="black" stroke-width="1" x1="550" x2="550" y1="315" y2="325" /><line stroke="black" stroke-width="1" x1="650" x2="650" y1="315" y2="325" /><line stroke="black" stroke-width="1" x1="750" x2="750" y1="315" y2="325" /><line stroke="black" stroke-width="1" x1="850" x2="850" y1="315" y2="325" /><rect fill="#4682B4" height="60" rx="5" ry="5" stroke="black" stroke-width="1" width="150" x="50" y="70.0" /><text font-family="Arial" font-size="12" font-weight="bold" text-anchor="middle" x="125.0" y="105">Present Story</text><text font-family="Arial" font-size="10" text-anchor="middle" x="125.0" y="125">5-9 sentences</text><line stroke="black" stroke-dasharray="5,3" stroke-width="1" x1="50" x2="50" y1="125" y2="320" /><line stroke="black" stroke-dasharray="5,3" stroke-width="1" x1="200" x2="200" y1="125" y2="320" /><rect fill="#4682B4" height="60" rx="5" ry="5" stroke="black" stroke-width="1" width="60" x="204" y="70.0" /><text font-family="Arial" font-size="12" font-weight="bold" text-anchor="middle" x="234.0" y="105">About</text><line stroke="black" stroke-dasharray="5,3" stroke-width="1" x1="204" x2="204" y1="125" y2="320" /><line stroke="black" stroke-dasharray="5,3" stroke-width="1" x1="264" x2="264" y1="125" y2="320" /><rect fill="#66CDAA" height="60" rx="5" ry="5" stroke="black" stroke-width="1" width="70" x="264" y="70.0" /><text font-family="Arial" font-size="12" font-weight="bold" text-anchor="middle" x="299.0" y="105">Story 1</text><text font-family="Arial" font-size="10" text-anchor="middle" x="299.0" y="125">Option</text><line stroke="black" stroke-dasharray="5,3" stroke-width="1" x1="264" x2="264" y1="125" y2="320" /><line stroke="black" stroke-dasharray="5,3" stroke-width="1" x1="334" x2="334" y1="125" y2="320" /><text font-family="Arial" font-size="14" font-weight="bold" text-anchor="middle" x="335.0" y="65">'Or'</text><line stroke="black" stroke-dasharray="5,3" stroke-width="1" x1="334" x2="334" y1="125" y2="320" /><line stroke="black" stroke-dasharray="5,3" stroke-width="1" x1="336" x2="336" y1="125" y2="320" /><line stroke="black" stroke-dasharray="5,3" stroke-width="1" x1="336" x2="336" y1="125" y2="320" /><rect fill="#66CDAA" height="60" rx="5" ry="5" stroke="black" stroke-width="1" width="70" x="336" y="70.0" /><text font-family="Arial" font-size="12" font-weight="bold" text-anchor="middle" x="371.0" y="105">Story 2</text><text font-family="Arial" font-size="10" text-anchor="middle" x="371.0" y="125">Option</text><line stroke="black" stroke-dasharray="5,3" stroke-width="1" x1="336" x2="336" y1="125" y2="320" /><line stroke="black" stroke-dasharray="5,3" stroke-width="1" x1="406" x2="406" y1="125" y2="320" /><rect fill="#66CDAA" height="60" rx="5" ry="5" stroke="black" stroke-width="1" width="70" x="406" y="70.0" /><text font-family="Arial" font-size="12" font-weight="bold" text-anchor="middle" x="441.0" y="105">Response</text><line stroke="black" stroke-dasharray="5,3" stroke-width="1" x1="406" x2="406" y1="125" y2="320" /><line stroke="black" stroke-dasharray="5,3" stroke-width="1" x1="476" x2="476" y1="125" y2="320" /><rect fill="#DDA0DD" height="60" rx="5" ry="5" stroke="black" stroke-width="1" width="30" x="476" y="70.0" /><text font-family="Arial" font-size="12" font-weight="bold" text-anchor="middle" x="491.0" y="105" /><line stroke="black" stroke-dasharray="5,3" stroke-width="1" x1="476" x2="476" y1="125" y2="320" /><line stroke="black" stroke-dasharray="5,3" stroke-width="1" x1="506" x2="506" y1="125" y2="320" /><rect fill="#CD5C5C" height="60" rx="5" ry="5" stroke="black" stroke-width="1" width="100" x="506" y="190.0" /><text font-family="Arial" font-size="12" font-weight="bold" text-anchor="middle" x="556.0" y="225">Present Math</text><text font-family="Arial" font-size="10" text-anchor="middle" x="556.0" y="245">math operations</text><line stroke="black" stroke-dasharray="5,3" stroke-width="1" x1="506" x2="506" y1="245" y2="320" /><line stroke="black" stroke-dasharray="5,3" stroke-width="1" x1="606" x2="606" y1="245" y2="320" /><rect fill="#66CDAA" height="60" rx="5" ry="5" stroke="black" stroke-width="1" width="80" x="606" y="190.0" /><text font-family="Arial" font-size="12" font-weight="bold" text-anchor="middle" x="646.0" y="225">Question</text><text font-family="Arial" font-size="10" text-anchor="middle" x="646.0" y="245">2-options</text><line stroke="black" stroke-dasharray="5,3" stroke-width="1" x1="606" x2="606" y1="245" y2="320" /><line stroke="black" stroke-dasharray="5,3" stroke-width="1" x1="686" x2="686" y1="245" y2="320" /><rect fill="#66CDAA" height="60" rx="5" ry="5" stroke="black" stroke-width="1" width="70" x="686" y="190.0" /><text font-family="Arial" font-size="12" font-weight="bold" text-anchor="middle" x="721.0" y="225">Response</text><line stroke="black" stroke-dasharray="5,3" stroke-width="1" x1="686" x2="686" y1="245" y2="320" /><line stroke="black" stroke-dasharray="5,3" stroke-width="1" x1="756" x2="756" y1="245" y2="320" /><rect fill="#DDA0DD" height="60" rx="5" ry="5" stroke="black" stroke-width="1" width="30" x="756" y="190.0" /><text font-family="Arial" font-size="12" font-weight="bold" text-anchor="middle" x="771.0" y="225" /><line stroke="black" stroke-dasharray="5,3" stroke-width="1" x1="756" x2="756" y1="245" y2="320" /><line stroke="black" stroke-dasharray="5,3" stroke-width="1" x1="786" x2="786" y1="245" y2="320" /><rect fill="#4682B4" height="15" stroke="black" stroke-width="1" width="20" x="750" y="30" /><text font-family="Arial" font-size="12" x="780" y="42">Present Story</text><rect fill="#CD5C5C" height="15" stroke="black" stroke-width="1" width="20" x="750" y="55" /><text font-family="Arial" font-size="12" x="780" y="67">Present Math</text><rect fill="#66CDAA" height="15" stroke="black" stroke-width="1" width="20" x="750" y="80" /><text font-family="Arial" font-size="12" x="780" y="92">Response Window</text><rect fill="#4682B4" height="15" stroke="black" stroke-width="1" width="20" x="750" y="105" /><text font-family="Arial" font-size="12" x="780" y="117">"That Was About"</text><rect fill="#DDA0DD" height="15" stroke="black" stroke-width="1" width="20" x="750" y="130" /><text font-family="Arial" font-size="12" x="780" y="142">Change Block</text><text font-family="Arial" font-size="11" x="50" y="370">• Story: Aesop's fables followed by two alternative options</text><text font-family="Arial" font-size="11" x="50" y="390">• Math: Adaptive difficulty arithmetic problems</text><text font-family="Arial" font-size="11" x="50" y="410">• Added 'That Was About' block for ~1 second reflection</text></svg>