<?xml version="1.0" encoding="utf-8" ?>
<svg baseProfile="tiny" height="400px" version="1.2" width="800px" xmlns="http://www.w3.org/2000/svg" xmlns:ev="http://www.w3.org/2001/xml-events" xmlns:xlink="http://www.w3.org/1999/xlink"><defs /><rect fill="white" height="100%" width="100%" x="0" y="0" /><text font-family="Arial" font-size="20" font-weight="bold" text-anchor="middle" x="400" y="30">Language Task: Block Structure</text><line stroke="black" stroke-width="2" x1="50" x2="750" y1="320" y2="320" /><line stroke="black" stroke-width="1" x1="50" x2="50" y1="315" y2="325" /><text font-family="Arial" font-size="10" text-anchor="middle" x="50" y="340">0s</text><line stroke="black" stroke-width="1" x1="150" x2="150" y1="315" y2="325" /><text font-family="Arial" font-size="10" text-anchor="middle" x="150" y="340">10s</text><line stroke="black" stroke-width="1" x1="250" x2="250" y1="315" y2="325" /><text font-family="Arial" font-size="10" text-anchor="middle" x="250" y="340">20s</text><line stroke="black" stroke-width="1" x1="350" x2="350" y1="315" y2="325" /><text font-family="Arial" font-size="10" text-anchor="middle" x="350" y="340">30s</text><line stroke="black" stroke-width="1" x1="450" x2="450" y1="315" y2="325" /><text font-family="Arial" font-size="10" text-anchor="middle" x="450" y="340">40s</text><rect fill="#4682B4" height="60" rx="5" ry="5" stroke="black" stroke-width="1" width="150" x="50" y="70.0" /><text font-family="Arial" font-size="12" font-weight="bold" text-anchor="middle" x="125.0" y="105">Story Presentation</text><text font-family="Arial" font-size="10" text-anchor="middle" x="125.0" y="125">5-9 sentences</text><line stroke="black" stroke-dasharray="5,3" stroke-width="1" x1="50" x2="50" y1="125" y2="320" /><line stroke="black" stroke-dasharray="5,3" stroke-width="1" x1="200" x2="200" y1="125" y2="320" /><rect fill="#4682B4" height="60" rx="5" ry="5" stroke="black" stroke-width="1" width="80" x="200" y="70.0" /><text font-family="Arial" font-size="12" font-weight="bold" text-anchor="middle" x="240.0" y="105">Question</text><text font-family="Arial" font-size="10" text-anchor="middle" x="240.0" y="125">2-alternative</text><line stroke="black" stroke-dasharray="5,3" stroke-width="1" x1="200" x2="200" y1="125" y2="320" /><line stroke="black" stroke-dasharray="5,3" stroke-width="1" x1="280" x2="280" y1="125" y2="320" /><rect fill="#66CDAA" height="60" rx="5" ry="5" stroke="black" stroke-width="1" width="60" x="280" y="70.0" /><text font-family="Arial" font-size="12" font-weight="bold" text-anchor="middle" x="310.0" y="105">Response</text><line stroke="black" stroke-dasharray="5,3" stroke-width="1" x1="280" x2="280" y1="125" y2="320" /><line stroke="black" stroke-dasharray="5,3" stroke-width="1" x1="340" x2="340" y1="125" y2="320" /><rect fill="#DDA0DD" height="60" rx="5" ry="5" stroke="black" stroke-width="1" width="40" x="340" y="70.0" /><text font-family="Arial" font-size="12" font-weight="bold" text-anchor="middle" x="360.0" y="105">Change</text><line stroke="black" stroke-dasharray="5,3" stroke-width="1" x1="340" x2="340" y1="125" y2="320" /><line stroke="black" stroke-dasharray="5,3" stroke-width="1" x1="380" x2="380" y1="125" y2="320" /><rect fill="#CD5C5C" height="60" rx="5" ry="5" stroke="black" stroke-width="1" width="150" x="380" y="190.0" /><text font-family="Arial" font-size="12" font-weight="bold" text-anchor="middle" x="455.0" y="225">Math Presentation</text><text font-family="Arial" font-size="10" text-anchor="middle" x="455.0" y="245">arithmetic operations</text><line stroke="black" stroke-dasharray="5,3" stroke-width="1" x1="380" x2="380" y1="245" y2="320" /><line stroke="black" stroke-dasharray="5,3" stroke-width="1" x1="530" x2="530" y1="245" y2="320" /><rect fill="#CD5C5C" height="60" rx="5" ry="5" stroke="black" stroke-width="1" width="80" x="530" y="190.0" /><text font-family="Arial" font-size="12" font-weight="bold" text-anchor="middle" x="570.0" y="225">Question</text><text font-family="Arial" font-size="10" text-anchor="middle" x="570.0" y="245">2-alternative</text><line stroke="black" stroke-dasharray="5,3" stroke-width="1" x1="530" x2="530" y1="245" y2="320" /><line stroke="black" stroke-dasharray="5,3" stroke-width="1" x1="610" x2="610" y1="245" y2="320" /><rect fill="#66CDAA" height="60" rx="5" ry="5" stroke="black" stroke-width="1" width="60" x="610" y="190.0" /><text font-family="Arial" font-size="12" font-weight="bold" text-anchor="middle" x="640.0" y="225">Response</text><line stroke="black" stroke-dasharray="5,3" stroke-width="1" x1="610" x2="610" y1="245" y2="320" /><line stroke="black" stroke-dasharray="5,3" stroke-width="1" x1="670" x2="670" y1="245" y2="320" /><rect fill="#DDA0DD" height="60" rx="5" ry="5" stroke="black" stroke-width="1" width="40" x="670" y="190.0" /><text font-family="Arial" font-size="12" font-weight="bold" text-anchor="middle" x="690.0" y="225">Change</text><line stroke="black" stroke-dasharray="5,3" stroke-width="1" x1="670" x2="670" y1="245" y2="320" /><line stroke="black" stroke-dasharray="5,3" stroke-width="1" x1="710" x2="710" y1="245" y2="320" /><rect fill="#4682B4" height="15" stroke="black" stroke-width="1" width="20" x="600" y="30" /><text font-family="Arial" font-size="12" x="630" y="42">Story Blocks</text><rect fill="#CD5C5C" height="15" stroke="black" stroke-width="1" width="20" x="600" y="55" /><text font-family="Arial" font-size="12" x="630" y="67">Math Blocks</text><rect fill="#66CDAA" height="15" stroke="black" stroke-width="1" width="20" x="600" y="80" /><text font-family="Arial" font-size="12" x="630" y="92">Response Window</text><rect fill="#DDA0DD" height="15" stroke="black" stroke-width="1" width="20" x="600" y="105" /><text font-family="Arial" font-size="12" x="630" y="117">Change Block</text><text font-family="Arial" font-size="11" x="50" y="370">• Story: Aesop's fables followed by comprehension question</text><text font-family="Arial" font-size="11" x="50" y="390">• Math: Adaptive difficulty arithmetic problems</text></svg>