<?xml version="1.0" encoding="utf-8" ?>
<svg baseProfile="tiny" height="400px" version="1.2" width="950px" xmlns="http://www.w3.org/2000/svg" xmlns:ev="http://www.w3.org/2001/xml-events" xmlns:xlink="http://www.w3.org/1999/xlink"><defs /><rect fill="white" height="100%" width="100%" x="0" y="0" /><text font-family="Arial" font-size="20" font-weight="bold" text-anchor="middle" x="475" y="30">Language Task: Block Structure</text><line stroke="black" stroke-width="2" x1="50" x2="782" y1="320" y2="320" /><line stroke="black" stroke-width="1" x1="50" x2="50" y1="315" y2="325" /><line stroke="black" stroke-width="1" x1="150" x2="150" y1="315" y2="325" /><line stroke="black" stroke-width="1" x1="250" x2="250" y1="315" y2="325" /><line stroke="black" stroke-width="1" x1="350" x2="350" y1="315" y2="325" /><line stroke="black" stroke-width="1" x1="450" x2="450" y1="315" y2="325" /><line stroke="black" stroke-width="1" x1="550" x2="550" y1="315" y2="325" /><line stroke="black" stroke-width="1" x1="650" x2="650" y1="315" y2="325" /><line stroke="black" stroke-width="1" x1="750" x2="750" y1="315" y2="325" /><rect fill="#4682B4" height="60" rx="5" ry="5" stroke="black" stroke-width="1" width="150" x="50" y="70.0" /><text font-family="Arial" font-size="12" font-weight="bold" text-anchor="middle" x="125.0" y="105">Story Presentation</text><text font-family="Arial" font-size="10" text-anchor="middle" x="125.0" y="125">5-9 sentences</text><line stroke="black" stroke-dasharray="5,3" stroke-width="1" x1="50" x2="50" y1="125" y2="320" /><line stroke="black" stroke-dasharray="5,3" stroke-width="1" x1="200" x2="200" y1="125" y2="320" /><rect fill="#FFD700" height="60" rx="5" ry="5" stroke="black" stroke-width="1" width="70" x="200" y="70.0" /><text font-family="Arial" font-size="12" font-weight="bold" text-anchor="middle" x="235.0" y="105">Story 1</text><text font-family="Arial" font-size="10" text-anchor="middle" x="235.0" y="125">Option</text><line stroke="black" stroke-dasharray="5,3" stroke-width="1" x1="200" x2="200" y1="125" y2="320" /><line stroke="black" stroke-dasharray="5,3" stroke-width="1" x1="270" x2="270" y1="125" y2="320" /><rect fill="black" height="16" rx="2" ry="2" width="8.0" x="263.0" y="30" /><path d="M271.0,30 L279.0,26.0 L279.0,50.0 L271.0,46 Z" fill="black" /><path d="M282.0,34.0 a4.0,5.333333333333333 0 0,1 0,8.0" fill="none" stroke="black" stroke-width="2" /><path d="M286.0,32.666666666666664 a5.333333333333333,8.0 0 0,1 0,10.666666666666666" fill="none" stroke="black" stroke-width="2" /><text font-family="Arial" font-size="14" font-weight="bold" text-anchor="middle" x="271.0" y="65">'Or'</text><line stroke="black" stroke-dasharray="5,3" stroke-width="1" x1="270" x2="270" y1="125" y2="320" /><line stroke="black" stroke-dasharray="5,3" stroke-width="1" x1="272" x2="272" y1="125" y2="320" /><line stroke="black" stroke-dasharray="5,3" stroke-width="1" x1="272" x2="272" y1="125" y2="320" /><rect fill="#FFD700" height="60" rx="5" ry="5" stroke="black" stroke-width="1" width="70" x="272" y="70.0" /><text font-family="Arial" font-size="12" font-weight="bold" text-anchor="middle" x="307.0" y="105">Story 2</text><text font-family="Arial" font-size="10" text-anchor="middle" x="307.0" y="125">Option</text><line stroke="black" stroke-dasharray="5,3" stroke-width="1" x1="272" x2="272" y1="125" y2="320" /><line stroke="black" stroke-dasharray="5,3" stroke-width="1" x1="342" x2="342" y1="125" y2="320" /><rect fill="#66CDAA" height="60" rx="5" ry="5" stroke="black" stroke-width="1" width="60" x="342" y="70.0" /><text font-family="Arial" font-size="12" font-weight="bold" text-anchor="middle" x="372.0" y="105">Response</text><line stroke="black" stroke-dasharray="5,3" stroke-width="1" x1="342" x2="342" y1="125" y2="320" /><line stroke="black" stroke-dasharray="5,3" stroke-width="1" x1="402" x2="402" y1="125" y2="320" /><rect fill="#DDA0DD" height="60" rx="5" ry="5" stroke="black" stroke-width="1" width="40" x="402" y="70.0" /><text font-family="Arial" font-size="12" font-weight="bold" text-anchor="middle" x="422.0" y="105">Change</text><line stroke="black" stroke-dasharray="5,3" stroke-width="1" x1="402" x2="402" y1="125" y2="320" /><line stroke="black" stroke-dasharray="5,3" stroke-width="1" x1="442" x2="442" y1="125" y2="320" /><rect fill="#CD5C5C" height="60" rx="5" ry="5" stroke="black" stroke-width="1" width="150" x="442" y="190.0" /><text font-family="Arial" font-size="12" font-weight="bold" text-anchor="middle" x="517.0" y="225">Math Presentation</text><text font-family="Arial" font-size="10" text-anchor="middle" x="517.0" y="245">arithmetic operations</text><line stroke="black" stroke-dasharray="5,3" stroke-width="1" x1="442" x2="442" y1="245" y2="320" /><line stroke="black" stroke-dasharray="5,3" stroke-width="1" x1="592" x2="592" y1="245" y2="320" /><rect fill="#CD5C5C" height="60" rx="5" ry="5" stroke="black" stroke-width="1" width="80" x="592" y="190.0" /><text font-family="Arial" font-size="12" font-weight="bold" text-anchor="middle" x="632.0" y="225">Question</text><text font-family="Arial" font-size="10" text-anchor="middle" x="632.0" y="245">2-alternative</text><line stroke="black" stroke-dasharray="5,3" stroke-width="1" x1="592" x2="592" y1="245" y2="320" /><line stroke="black" stroke-dasharray="5,3" stroke-width="1" x1="672" x2="672" y1="245" y2="320" /><rect fill="#66CDAA" height="60" rx="5" ry="5" stroke="black" stroke-width="1" width="60" x="672" y="190.0" /><text font-family="Arial" font-size="12" font-weight="bold" text-anchor="middle" x="702.0" y="225">Response</text><line stroke="black" stroke-dasharray="5,3" stroke-width="1" x1="672" x2="672" y1="245" y2="320" /><line stroke="black" stroke-dasharray="5,3" stroke-width="1" x1="732" x2="732" y1="245" y2="320" /><rect fill="#DDA0DD" height="60" rx="5" ry="5" stroke="black" stroke-width="1" width="40" x="732" y="190.0" /><text font-family="Arial" font-size="12" font-weight="bold" text-anchor="middle" x="752.0" y="225">Change</text><line stroke="black" stroke-dasharray="5,3" stroke-width="1" x1="732" x2="732" y1="245" y2="320" /><line stroke="black" stroke-dasharray="5,3" stroke-width="1" x1="772" x2="772" y1="245" y2="320" /><rect fill="#4682B4" height="15" stroke="black" stroke-width="1" width="20" x="750" y="30" /><text font-family="Arial" font-size="12" x="780" y="42">Story Blocks</text><rect fill="#CD5C5C" height="15" stroke="black" stroke-width="1" width="20" x="750" y="55" /><text font-family="Arial" font-size="12" x="780" y="67">Math Blocks</text><rect fill="#FFD700" height="15" stroke="black" stroke-width="1" width="20" x="750" y="80" /><text font-family="Arial" font-size="12" x="780" y="92">Story Options</text><rect fill="#66CDAA" height="15" stroke="black" stroke-width="1" width="20" x="750" y="105" /><text font-family="Arial" font-size="12" x="780" y="117">Response Window</text><rect fill="#DDA0DD" height="15" stroke="black" stroke-width="1" width="20" x="750" y="130" /><text font-family="Arial" font-size="12" x="780" y="142">Change Block</text><text font-family="Arial" font-size="11" x="50" y="370">• Story: Aesop's fables followed by two alternative options</text><text font-family="Arial" font-size="11" x="50" y="390">• Math: Adaptive difficulty arithmetic problems</text></svg>