<?xml version="1.0" encoding="utf-8" ?>
<svg baseProfile="full" height="400px" version="1.1" width="800px" xmlns="http://www.w3.org/2000/svg" xmlns:ev="http://www.w3.org/2001/xml-events" xmlns:xlink="http://www.w3.org/1999/xlink"><defs><pattern height="4" id="diagonalHatch" patternUnits="userSpaceOnUse" width="4"><path d="M-1,1 l2,-2 M0,4 l4,-4 M3,5 l2,-2" stroke="#e15759" stroke-width="1" /></pattern></defs><rect fill="#f8f9fa" height="400px" rx="5" ry="5" width="800px" x="0" y="0" /><text font-family="Arial" font-size="20px" font-weight="bold" text-anchor="middle" x="400px" y="30px">Emotion Task Trial Structure</text><rect fill="#4e79a7" height="20px" rx="3" ry="3" width="20px" x="620px" y="60px" /><text font-family="Arial" font-size="14px" text-anchor="start" x="650px" y="75px">Face Block</text><rect fill="#f28e2b" height="20px" rx="3" ry="3" width="20px" x="620px" y="90px" /><text font-family="Arial" font-size="14px" text-anchor="start" x="650px" y="105px">Shape Block</text><rect fill="#e15759" height="20px" rx="3" ry="3" width="20px" x="620px" y="120px" /><text font-family="Arial" font-size="14px" text-anchor="start" x="650px" y="135px">Cue</text><rect fill="#76b7b2" height="20px" rx="3" ry="3" width="20px" x="620px" y="150px" /><text font-family="Arial" font-size="14px" text-anchor="start" x="650px" y="165px">Stimulus</text><rect fill="#59a14f" height="20px" rx="3" ry="3" width="20px" x="620px" y="180px" /><text font-family="Arial" font-size="14px" text-anchor="start" x="650px" y="195px">Fixation (ITI)</text><text font-family="Arial" font-size="16px" font-weight="bold" x="50px" y="40px">Run 1</text><line stroke="#333" stroke-width="2" x1="50px" x2="550px" y1="100px" y2="100px" /><rect fill="#4e79a7" fill-opacity="0.3" height="40px" rx="3" ry="3" width="150px" x="50px" y="80px" /><text font-family="Arial" font-size="12px" text-anchor="middle" x="125px" y="130px">Face Block 1</text><rect fill="#e15759" height="40px" rx="3" ry="3" width="20px" x="50px" y="80px" /><text font-family="Arial" font-size="10px" text-anchor="middle" x="60px" y="70px">"face"</text><text font-family="Arial" font-size="10px" text-anchor="middle" x="60px" y="60px">3s</text><rect fill="#76b7b2" height="40px" rx="2" ry="2" width="15px" x="70px" y="80px" /><rect fill="#59a14f" height="40px" rx="1" ry="1" width="5px" x="85px" y="80px" /><rect fill="#76b7b2" height="40px" rx="2" ry="2" width="15px" x="90px" y="80px" /><rect fill="#59a14f" height="40px" rx="1" ry="1" width="5px" x="105px" y="80px" /><rect fill="#76b7b2" height="40px" rx="2" ry="2" width="15px" x="110px" y="80px" /><rect fill="#59a14f" height="40px" rx="1" ry="1" width="5px" x="125px" y="80px" /><rect fill="#76b7b2" height="40px" rx="2" ry="2" width="15px" x="130px" y="80px" /><rect fill="#59a14f" height="40px" rx="1" ry="1" width="5px" x="145px" y="80px" /><rect fill="#76b7b2" height="40px" rx="2" ry="2" width="15px" x="150px" y="80px" /><rect fill="#59a14f" height="40px" rx="1" ry="1" width="5px" x="165px" y="80px" /><rect fill="#76b7b2" height="40px" rx="2" ry="2" width="15px" x="170px" y="80px" /><rect fill="#59a14f" height="40px" rx="1" ry="1" width="5px" x="185px" y="80px" /><rect fill="#f28e2b" fill-opacity="0.3" height="40px" rx="3" ry="3" width="150px" x="200px" y="80px" /><text font-family="Arial" font-size="12px" text-anchor="middle" x="275px" y="130px">Shape Block 1</text><rect fill="#e15759" height="40px" rx="3" ry="3" width="20px" x="200px" y="80px" /><text font-family="Arial" font-size="10px" text-anchor="middle" x="210px" y="70px">"shape"</text><text font-family="Arial" font-size="10px" text-anchor="middle" x="210px" y="60px">3s</text><rect fill="#76b7b2" height="40px" rx="2" ry="2" width="15px" x="220px" y="80px" /><rect fill="#59a14f" height="40px" rx="1" ry="1" width="5px" x="235px" y="80px" /><rect fill="#76b7b2" height="40px" rx="2" ry="2" width="15px" x="240px" y="80px" /><rect fill="#59a14f" height="40px" rx="1" ry="1" width="5px" x="255px" y="80px" /><rect fill="#76b7b2" height="40px" rx="2" ry="2" width="15px" x="260px" y="80px" /><rect fill="#59a14f" height="40px" rx="1" ry="1" width="5px" x="275px" y="80px" /><rect fill="#76b7b2" height="40px" rx="2" ry="2" width="15px" x="280px" y="80px" /><rect fill="#59a14f" height="40px" rx="1" ry="1" width="5px" x="295px" y="80px" /><rect fill="#76b7b2" height="40px" rx="2" ry="2" width="15px" x="300px" y="80px" /><rect fill="#59a14f" height="40px" rx="1" ry="1" width="5px" x="315px" y="80px" /><rect fill="#76b7b2" height="40px" rx="2" ry="2" width="15px" x="320px" y="80px" /><rect fill="#59a14f" height="40px" rx="1" ry="1" width="5px" x="335px" y="80px" /><text font-family="Arial" font-size="16px" text-anchor="middle" x="400px" y="100px">...</text><rect fill="#4e79a7" fill-opacity="0.3" height="40px" rx="3" ry="3" width="100px" x="450px" y="80px" /><text font-family="Arial" font-size="12px" text-anchor="middle" x="500px" y="130px">Last Block (Incomplete)</text><rect fill="#e15759" height="40px" rx="3" ry="3" width="20px" x="450px" y="80px" /><rect fill="#76b7b2" height="40px" rx="2" ry="2" width="15px" x="470px" y="80px" /><rect fill="#59a14f" height="40px" rx="1" ry="1" width="5px" x="485px" y="80px" /><rect fill="#76b7b2" height="40px" rx="2" ry="2" width="15px" x="490px" y="80px" /><rect fill="#59a14f" height="40px" rx="1" ry="1" width="5px" x="505px" y="80px" /><rect fill="#76b7b2" height="40px" rx="2" ry="2" width="15px" x="510px" y="80px" /><rect fill="#59a14f" height="40px" rx="1" ry="1" width="5px" x="525px" y="80px" /><rect fill="url(#diagonalHatch)" height="40px" rx="2" ry="2" width="25px" x="525px" y="80px" /><text font-family="Arial" font-size="10px" text-anchor="middle" x="535px" y="70px">Bug</text><text font-family="Arial" font-size="10px" text-anchor="middle" x="535px" y="60px">Missing 3 trials</text><text font-family="Arial" font-size="16px" font-weight="bold" x="50px" y="195px">Run 2</text><line stroke="#333" stroke-width="2" x1="50px" x2="550px" y1="255px" y2="255px" /><rect fill="#4e79a7" fill-opacity="0.3" height="40px" rx="3" ry="3" width="150px" x="50px" y="235px" /><text font-family="Arial" font-size="12px" text-anchor="middle" x="125px" y="285px">Face Block 1</text><rect fill="#e15759" height="40px" rx="3" ry="3" width="20px" x="50px" y="235px" /><text font-family="Arial" font-size="10px" text-anchor="middle" x="60px" y="225px">"face"</text><text font-family="Arial" font-size="10px" text-anchor="middle" x="60px" y="215px">3s</text><rect fill="#76b7b2" height="40px" rx="2" ry="2" width="15px" x="70px" y="235px" /><rect fill="#59a14f" height="40px" rx="1" ry="1" width="5px" x="85px" y="235px" /><rect fill="#76b7b2" height="40px" rx="2" ry="2" width="15px" x="90px" y="235px" /><rect fill="#59a14f" height="40px" rx="1" ry="1" width="5px" x="105px" y="235px" /><rect fill="#76b7b2" height="40px" rx="2" ry="2" width="15px" x="110px" y="235px" /><rect fill="#59a14f" height="40px" rx="1" ry="1" width="5px" x="125px" y="235px" /><rect fill="#76b7b2" height="40px" rx="2" ry="2" width="15px" x="130px" y="235px" /><rect fill="#59a14f" height="40px" rx="1" ry="1" width="5px" x="145px" y="235px" /><rect fill="#76b7b2" height="40px" rx="2" ry="2" width="15px" x="150px" y="235px" /><rect fill="#59a14f" height="40px" rx="1" ry="1" width="5px" x="165px" y="235px" /><rect fill="#76b7b2" height="40px" rx="2" ry="2" width="15px" x="170px" y="235px" /><rect fill="#59a14f" height="40px" rx="1" ry="1" width="5px" x="185px" y="235px" /><rect fill="#f28e2b" fill-opacity="0.3" height="40px" rx="3" ry="3" width="150px" x="200px" y="235px" /><text font-family="Arial" font-size="12px" text-anchor="middle" x="275px" y="285px">Shape Block 1</text><rect fill="#e15759" height="40px" rx="3" ry="3" width="20px" x="200px" y="235px" /><text font-family="Arial" font-size="10px" text-anchor="middle" x="210px" y="225px">"shape"</text><text font-family="Arial" font-size="10px" text-anchor="middle" x="210px" y="215px">3s</text><rect fill="#76b7b2" height="40px" rx="2" ry="2" width="15px" x="220px" y="235px" /><rect fill="#59a14f" height="40px" rx="1" ry="1" width="5px" x="235px" y="235px" /><rect fill="#76b7b2" height="40px" rx="2" ry="2" width="15px" x="240px" y="235px" /><rect fill="#59a14f" height="40px" rx="1" ry="1" width="5px" x="255px" y="235px" /><rect fill="#76b7b2" height="40px" rx="2" ry="2" width="15px" x="260px" y="235px" /><rect fill="#59a14f" height="40px" rx="1" ry="1" width="5px" x="275px" y="235px" /><rect fill="#76b7b2" height="40px" rx="2" ry="2" width="15px" x="280px" y="235px" /><rect fill="#59a14f" height="40px" rx="1" ry="1" width="5px" x="295px" y="235px" /><rect fill="#76b7b2" height="40px" rx="2" ry="2" width="15px" x="300px" y="235px" /><rect fill="#59a14f" height="40px" rx="1" ry="1" width="5px" x="315px" y="235px" /><rect fill="#76b7b2" height="40px" rx="2" ry="2" width="15px" x="320px" y="235px" /><rect fill="#59a14f" height="40px" rx="1" ry="1" width="5px" x="335px" y="235px" /><text font-family="Arial" font-size="16px" text-anchor="middle" x="400px" y="255px">...</text><rect fill="#f28e2b" fill-opacity="0.3" height="40px" rx="3" ry="3" width="100px" x="450px" y="235px" /><text font-family="Arial" font-size="12px" text-anchor="middle" x="500px" y="285px">Last Block (Incomplete)</text><rect fill="#e15759" height="40px" rx="3" ry="3" width="20px" x="450px" y="235px" /><rect fill="#76b7b2" height="40px" rx="2" ry="2" width="15px" x="470px" y="235px" /><rect fill="#59a14f" height="40px" rx="1" ry="1" width="5px" x="485px" y="235px" /><rect fill="#76b7b2" height="40px" rx="2" ry="2" width="15px" x="490px" y="235px" /><rect fill="#59a14f" height="40px" rx="1" ry="1" width="5px" x="505px" y="235px" /><rect fill="#76b7b2" height="40px" rx="2" ry="2" width="15px" x="510px" y="235px" /><rect fill="#59a14f" height="40px" rx="1" ry="1" width="5px" x="525px" y="235px" /><rect fill="url(#diagonalHatch)" height="40px" rx="2" ry="2" width="25px" x="525px" y="235px" /><text font-family="Arial" font-size="10px" text-anchor="middle" x="535px" y="225px">Bug</text><text font-family="Arial" font-size="10px" text-anchor="middle" x="535px" y="215px">Missing 3 trials</text><text font-family="Arial" font-size="14px" font-weight="bold" text-anchor="middle" x="400px" y="330px">Trial Details</text><text font-family="Arial" font-size="12px" text-anchor="start" x="50px" y="355px">• Each block starts with a 3s cue ("shape" or "face")</text><text font-family="Arial" font-size="12px" text-anchor="start" x="50px" y="375px">• Each block contains 6 trials of the same task (3 blocks per type per run)</text><text font-family="Arial" font-size="12px" text-anchor="start" x="50px" y="395px">• Each stimulus is presented for 2s, followed by a 1s inter-trial interval (ITI)</text></svg>