<?xml version="1.0" encoding="utf-8" ?>
<svg baseProfile="full" height="375" version="1.1" width="800px" xmlns="http://www.w3.org/2000/svg" xmlns:ev="http://www.w3.org/2001/xml-events" xmlns:xlink="http://www.w3.org/1999/xlink"><defs /><rect fill="white" height="100%" stroke="black" stroke-width="1" width="100%" x="0" y="0" /><text font-family="Arial" font-size="24" font-weight="bold" text-anchor="middle" x="400" y="75">Motor Task Diagram</text><line stroke="black" stroke-width="2" x1="50" x2="750" y1="250" y2="250" /><line stroke="black" stroke-width="1" x1="50.0" x2="50.0" y1="245.0" y2="255.0" /><text font-family="Arial" font-size="12" text-anchor="middle" x="50.0" y="275">0s</text><line stroke="black" stroke-width="1" x1="120.0" x2="120.0" y1="245.0" y2="255.0" /><text font-family="Arial" font-size="12" text-anchor="middle" x="120.0" y="275">15s</text><line stroke="black" stroke-width="1" x1="190.0" x2="190.0" y1="245.0" y2="255.0" /><text font-family="Arial" font-size="12" text-anchor="middle" x="190.0" y="275">30s</text><line stroke="black" stroke-width="1" x1="260.0" x2="260.0" y1="245.0" y2="255.0" /><text font-family="Arial" font-size="12" text-anchor="middle" x="260.0" y="275">45s</text><line stroke="black" stroke-width="1" x1="330.0" x2="330.0" y1="245.0" y2="255.0" /><text font-family="Arial" font-size="12" text-anchor="middle" x="330.0" y="275">60s</text><line stroke="black" stroke-width="1" x1="400.0" x2="400.0" y1="245.0" y2="255.0" /><text font-family="Arial" font-size="12" text-anchor="middle" x="400.0" y="275">75s</text><line stroke="black" stroke-width="1" x1="470.0" x2="470.0" y1="245.0" y2="255.0" /><text font-family="Arial" font-size="12" text-anchor="middle" x="470.0" y="275">90s</text><line stroke="black" stroke-width="1" x1="540.0" x2="540.0" y1="245.0" y2="255.0" /><text font-family="Arial" font-size="12" text-anchor="middle" x="540.0" y="275">105s</text><line stroke="black" stroke-width="1" x1="610.0" x2="610.0" y1="245.0" y2="255.0" /><text font-family="Arial" font-size="12" text-anchor="middle" x="610.0" y="275">120s</text><line stroke="black" stroke-width="1" x1="680.0" x2="680.0" y1="245.0" y2="255.0" /><text font-family="Arial" font-size="12" text-anchor="middle" x="680.0" y="275">135s</text><rect fill="#FFD700" height="45.0" stroke="black" stroke-width="1" width="16.153846153846153" x="50.0" y="200.0" /><text font-family="Arial" font-size="8" text-anchor="middle" x="58.07692307692308" y="225.0">Cue</text><rect fill="#FF6347" height="95.0" stroke="black" stroke-width="1" width="64.61538461538461" x="66.15384615384616" y="150" /><text font-family="Arial" font-size="10" font-weight="bold" text-anchor="middle" x="98.46153846153847" y="200.0">Left Hand</text><rect fill="#FFD700" height="45.0" stroke="black" stroke-width="1" width="16.153846153846153" x="130.76923076923077" y="200.0" /><text font-family="Arial" font-size="8" text-anchor="middle" x="138.84615384615384" y="225.0">Cue</text><rect fill="#4682B4" height="95.0" stroke="black" stroke-width="1" width="64.61538461538461" x="146.92307692307693" y="150" /><text font-family="Arial" font-size="10" font-weight="bold" text-anchor="middle" x="179.23076923076923" y="200.0">Right Hand</text><rect fill="#E0E0E0" height="95.0" stroke="black" stroke-width="1" width="80.76923076923077" x="211.53846153846155" y="150" /><text font-family="Arial" font-size="10" font-weight="bold" text-anchor="middle" x="251.92307692307693" y="200.0">Fixation</text><rect fill="#FFD700" height="45.0" stroke="black" stroke-width="1" width="16.153846153846153" x="292.30769230769226" y="200.0" /><text font-family="Arial" font-size="8" text-anchor="middle" x="300.38461538461536" y="225.0">Cue</text><rect fill="#32CD32" height="95.0" stroke="black" stroke-width="1" width="64.61538461538461" x="308.46153846153845" y="150" /><text font-family="Arial" font-size="10" font-weight="bold" text-anchor="middle" x="340.7692307692308" y="200.0">Left Foot</text><rect fill="#FFD700" height="45.0" stroke="black" stroke-width="1" width="16.153846153846153" x="373.0769230769231" y="200.0" /><text font-family="Arial" font-size="8" text-anchor="middle" x="381.1538461538462" y="225.0">Cue</text><rect fill="#9370DB" height="95.0" stroke="black" stroke-width="1" width="64.61538461538461" x="389.2307692307692" y="150" /><text font-family="Arial" font-size="10" font-weight="bold" text-anchor="middle" x="421.53846153846155" y="200.0">Right Foot</text><rect fill="#E0E0E0" height="95.0" stroke="black" stroke-width="1" width="80.76923076923077" x="453.8461538461538" y="150" /><text font-family="Arial" font-size="10" font-weight="bold" text-anchor="middle" x="494.23076923076917" y="200.0">Fixation</text><rect fill="#FFD700" height="45.0" stroke="black" stroke-width="1" width="16.153846153846153" x="534.6153846153845" y="200.0" /><text font-family="Arial" font-size="8" text-anchor="middle" x="542.6923076923076" y="225.0">Cue</text><rect fill="#FF69B4" height="95.0" stroke="black" stroke-width="1" width="64.61538461538461" x="550.7692307692307" y="150" /><text font-family="Arial" font-size="10" font-weight="bold" text-anchor="middle" x="583.076923076923" y="200.0">Tongue</text><rect fill="#FFD700" height="45.0" stroke="black" stroke-width="1" width="16.153846153846153" x="615.3846153846154" y="200.0" /><text font-family="Arial" font-size="8" text-anchor="middle" x="623.4615384615385" y="225.0">Cue</text><rect fill="#FF6347" height="95.0" stroke="black" stroke-width="1" width="64.61538461538461" x="631.5384615384615" y="150" /><text font-family="Arial" font-size="10" font-weight="bold" text-anchor="middle" x="663.8461538461538" y="200.0">Left Hand</text><text font-family="Arial" font-size="12" text-anchor="middle" x="400" y="325">- Each movement block is preceded by a 3-second cue</text><text font-family="Arial" font-size="12" text-anchor="middle" x="400" y="340">- Two runs with 13 blocks each (shown partially above)</text><text font-family="Arial" font-size="12" text-anchor="middle" x="400" y="355">- 2 tongue movements, 4 hand movements (2L, 2R), 4 foot movements (2L, 2R), and 3 fixation blocks per run</text></svg>