<?xml version="1.0" encoding="utf-8" ?>
<svg baseProfile="full" height="400px" version="1.1" width="800px" xmlns="http://www.w3.org/2000/svg" xmlns:ev="http://www.w3.org/2001/xml-events" xmlns:xlink="http://www.w3.org/1999/xlink"><defs /><rect fill="white" height="100%" stroke="black" stroke-width="1" width="100%" x="0" y="0" /><text font-family="Arial" font-size="24" font-weight="bold" text-anchor="middle" x="400" y="50">Relational Task Diagram</text><rect fill="#8A2BE2" height="15" stroke="black" stroke-width="1" width="15" x="250" y="90" /><text font-family="Arial" font-size="12" x="270" y="103">Prompt</text><rect fill="#4682B4" height="15" stroke="black" stroke-width="1" width="15" x="350" y="90" /><text font-family="Arial" font-size="12" x="370" y="103">Relational (R)</text><rect fill="#FF6347" height="15" stroke="black" stroke-width="1" width="15" x="450" y="90" /><text font-family="Arial" font-size="12" x="470" y="103">Matching (M)</text><rect fill="#E0E0E0" height="15" stroke="black" stroke-width="1" width="15" x="550" y="90" /><text font-family="Arial" font-size="12" x="570" y="103">Fixation (p)</text><line stroke="black" stroke-width="2" x1="50" x2="750" y1="250" y2="250" /><line stroke="black" stroke-width="1" x1="50.0" x2="50.0" y1="245.0" y2="255.0" /><line stroke="black" stroke-width="1" x1="96.66666666666666" x2="96.66666666666666" y1="245.0" y2="255.0" /><line stroke="black" stroke-width="1" x1="143.33333333333331" x2="143.33333333333331" y1="245.0" y2="255.0" /><line stroke="black" stroke-width="1" x1="190.0" x2="190.0" y1="245.0" y2="255.0" /><line stroke="black" stroke-width="1" x1="236.66666666666666" x2="236.66666666666666" y1="245.0" y2="255.0" /><line stroke="black" stroke-width="1" x1="283.3333333333333" x2="283.3333333333333" y1="245.0" y2="255.0" /><line stroke="black" stroke-width="1" x1="330.0" x2="330.0" y1="245.0" y2="255.0" /><line stroke="black" stroke-width="1" x1="376.6666666666667" x2="376.6666666666667" y1="245.0" y2="255.0" /><line stroke="black" stroke-width="1" x1="423.3333333333333" x2="423.3333333333333" y1="245.0" y2="255.0" /><line stroke="black" stroke-width="1" x1="470.0" x2="470.0" y1="245.0" y2="255.0" /><line stroke="black" stroke-width="1" x1="516.6666666666666" x2="516.6666666666666" y1="245.0" y2="255.0" /><line stroke="black" stroke-width="1" x1="563.3333333333333" x2="563.3333333333333" y1="245.0" y2="255.0" /><line stroke="black" stroke-width="1" x1="610.0" x2="610.0" y1="245.0" y2="255.0" /><line stroke="black" stroke-width="1" x1="656.6666666666667" x2="656.6666666666667" y1="245.0" y2="255.0" /><line stroke="black" stroke-width="1" x1="703.3333333333334" x2="703.3333333333334" y1="245.0" y2="255.0" /><rect fill="#8A2BE2" height="95.0" stroke="black" stroke-width="1" width="8.974358974358974" x="50.0" y="150" /><text font-family="Arial" font-size="10" font-weight="bold" text-anchor="middle" x="54.48717948717949" y="200.0"> </text><rect fill="#4682B4" height="95.0" stroke="black" stroke-width="1" width="71.7948717948718" x="58.97435897435898" y="150" /><text font-family="Arial" font-size="10" font-weight="bold" text-anchor="middle" x="94.87179487179488" y="200.0">R Block</text><line stroke="black" stroke-width="1" x1="58.97435897435898" x2="58.97435897435898" y1="230" y2="240" /><line stroke="black" stroke-width="1" x1="76.92307692307693" x2="76.92307692307693" y1="230" y2="240" /><line stroke="black" stroke-width="1" x1="94.87179487179488" x2="94.87179487179488" y1="230" y2="240" /><line stroke="black" stroke-width="1" x1="112.82051282051282" x2="112.82051282051282" y1="230" y2="240" /><text font-family="Arial" font-size="8" text-anchor="middle" x="94.87179487179488" y="215.0">Trials/ITI</text><rect fill="#8A2BE2" height="95.0" stroke="black" stroke-width="1" width="8.974358974358974" x="130.76923076923077" y="150" /><text font-family="Arial" font-size="10" font-weight="bold" text-anchor="middle" x="135.25641025641025" y="200.0"> </text><rect fill="#FF6347" height="95.0" stroke="black" stroke-width="1" width="71.7948717948718" x="139.74358974358972" y="150" /><text font-family="Arial" font-size="10" font-weight="bold" text-anchor="middle" x="175.64102564102564" y="200.0">M Block</text><line stroke="black" stroke-width="1" x1="139.74358974358972" x2="139.74358974358972" y1="230" y2="240" /><line stroke="black" stroke-width="1" x1="154.1025641025641" x2="154.1025641025641" y1="230" y2="240" /><line stroke="black" stroke-width="1" x1="168.46153846153845" x2="168.46153846153845" y1="230" y2="240" /><line stroke="black" stroke-width="1" x1="182.82051282051282" x2="182.82051282051282" y1="230" y2="240" /><line stroke="black" stroke-width="1" x1="197.17948717948715" x2="197.17948717948715" y1="230" y2="240" /><text font-family="Arial" font-size="8" text-anchor="middle" x="175.64102564102564" y="215.0">Trial/ITI</text><rect fill="#E0E0E0" height="95.0" stroke="black" stroke-width="1" width="71.7948717948718" x="211.53846153846155" y="150" /><text font-family="Arial" font-size="10" font-weight="bold" text-anchor="middle" x="247.43589743589746" y="200.0">F BLock</text><rect fill="#8A2BE2" height="95.0" stroke="black" stroke-width="1" width="8.974358974358974" x="283.3333333333333" y="150" /><text font-family="Arial" font-size="10" font-weight="bold" text-anchor="middle" x="287.8205128205128" y="200.0"> </text><rect fill="#4682B4" height="95.0" stroke="black" stroke-width="1" width="71.7948717948718" x="292.30769230769226" y="150" /><text font-family="Arial" font-size="10" font-weight="bold" text-anchor="middle" x="328.2051282051282" y="200.0">R Block</text><line stroke="black" stroke-width="1" x1="292.30769230769226" x2="292.30769230769226" y1="230" y2="240" /><line stroke="black" stroke-width="1" x1="310.2564102564102" x2="310.2564102564102" y1="230" y2="240" /><line stroke="black" stroke-width="1" x1="328.2051282051282" x2="328.2051282051282" y1="230" y2="240" /><line stroke="black" stroke-width="1" x1="346.15384615384613" x2="346.15384615384613" y1="230" y2="240" /><text font-family="Arial" font-size="8" text-anchor="middle" x="328.2051282051282" y="215.0">Trials/ITI</text><rect fill="#8A2BE2" height="95.0" stroke="black" stroke-width="1" width="8.974358974358974" x="364.1025641025641" y="150" /><text font-family="Arial" font-size="10" font-weight="bold" text-anchor="middle" x="368.5897435897436" y="200.0"> </text><rect fill="#FF6347" height="95.0" stroke="black" stroke-width="1" width="71.7948717948718" x="373.0769230769231" y="150" /><text font-family="Arial" font-size="10" font-weight="bold" text-anchor="middle" x="408.974358974359" y="200.0">M Block</text><line stroke="black" stroke-width="1" x1="373.0769230769231" x2="373.0769230769231" y1="230" y2="240" /><line stroke="black" stroke-width="1" x1="387.43589743589746" x2="387.43589743589746" y1="230" y2="240" /><line stroke="black" stroke-width="1" x1="401.7948717948718" x2="401.7948717948718" y1="230" y2="240" /><line stroke="black" stroke-width="1" x1="416.1538461538462" x2="416.1538461538462" y1="230" y2="240" /><line stroke="black" stroke-width="1" x1="430.51282051282055" x2="430.51282051282055" y1="230" y2="240" /><text font-family="Arial" font-size="8" text-anchor="middle" x="408.974358974359" y="215.0">Trial/ITI</text><rect fill="#E0E0E0" height="95.0" stroke="black" stroke-width="1" width="71.7948717948718" x="444.87179487179486" y="150" /><text font-family="Arial" font-size="10" font-weight="bold" text-anchor="middle" x="480.7692307692308" y="200.0">F Block</text><rect fill="#8A2BE2" height="95.0" stroke="black" stroke-width="1" width="8.974358974358974" x="516.6666666666666" y="150" /><text font-family="Arial" font-size="10" font-weight="bold" text-anchor="middle" x="521.1538461538461" y="200.0"> </text><rect fill="#4682B4" height="95.0" stroke="black" stroke-width="1" width="71.7948717948718" x="525.6410256410256" y="150" /><text font-family="Arial" font-size="10" font-weight="bold" text-anchor="middle" x="561.5384615384615" y="200.0">R Block</text><line stroke="black" stroke-width="1" x1="525.6410256410256" x2="525.6410256410256" y1="230" y2="240" /><line stroke="black" stroke-width="1" x1="543.5897435897435" x2="543.5897435897435" y1="230" y2="240" /><line stroke="black" stroke-width="1" x1="561.5384615384615" x2="561.5384615384615" y1="230" y2="240" /><line stroke="black" stroke-width="1" x1="579.4871794871794" x2="579.4871794871794" y1="230" y2="240" /><text font-family="Arial" font-size="8" text-anchor="middle" x="561.5384615384615" y="215.0">Trials/ITI</text><rect fill="#8A2BE2" height="95.0" stroke="black" stroke-width="1" width="8.974358974358974" x="597.4358974358975" y="150" /><text font-family="Arial" font-size="10" font-weight="bold" text-anchor="middle" x="601.9230769230769" y="200.0"> </text><rect fill="#FF6347" height="95.0" stroke="black" stroke-width="1" width="71.7948717948718" x="606.4102564102564" y="150" /><text font-family="Arial" font-size="10" font-weight="bold" text-anchor="middle" x="642.3076923076923" y="200.0">M Block</text><line stroke="black" stroke-width="1" x1="606.4102564102564" x2="606.4102564102564" y1="230" y2="240" /><line stroke="black" stroke-width="1" x1="620.7692307692307" x2="620.7692307692307" y1="230" y2="240" /><line stroke="black" stroke-width="1" x1="635.1282051282051" x2="635.1282051282051" y1="230" y2="240" /><line stroke="black" stroke-width="1" x1="649.4871794871794" x2="649.4871794871794" y1="230" y2="240" /><line stroke="black" stroke-width="1" x1="663.8461538461538" x2="663.8461538461538" y1="230" y2="240" /><text font-family="Arial" font-size="8" text-anchor="middle" x="642.3076923076923" y="215.0">Trial/ITI</text><rect fill="#E0E0E0" height="95.0" stroke="black" stroke-width="1" width="71.7948717948718" x="678.2051282051282" y="150" /><text font-family="Arial" font-size="10" font-weight="bold" text-anchor="middle" x="714.1025641025641" y="200.0">F Block</text><text font-family="Arial" font-size="12" text-anchor="middle" x="400" y="300">- Each run contains 3 Relational blocks, 3 Matching blocks, and 3 Fixation blocks</text><text font-family="Arial" font-size="12" text-anchor="middle" x="400" y="320">- Each relational (R) and matching (M) block starts with a ~2s prompt specifying the block type</text><text font-family="Arial" font-size="12" text-anchor="middle" x="400" y="340">- Relational blocks: 4 trials x 3500ms w/ ITI</text><text font-family="Arial" font-size="12" text-anchor="middle" x="400" y="360">- Matching blocks: 5 trials x 2800ms w/ ITI</text></svg>