<?xml version="1.0" encoding="utf-8" ?>
<svg baseProfile="full" height="400px" version="1.1" width="800px" xmlns="http://www.w3.org/2000/svg" xmlns:ev="http://www.w3.org/2001/xml-events" xmlns:xlink="http://www.w3.org/1999/xlink"><defs /><rect fill="white" height="100%" stroke="black" stroke-width="1" width="100%" x="0" y="0" /><text font-family="Arial" font-size="24" font-weight="bold" text-anchor="middle" x="400" y="50">Relational Task Diagram</text><line stroke="black" stroke-width="2" x1="50" x2="750" y1="250" y2="250" /><line stroke="black" stroke-width="1" x1="50.0" x2="50.0" y1="245.0" y2="255.0" /><line stroke="black" stroke-width="1" x1="96.66666666666666" x2="96.66666666666666" y1="245.0" y2="255.0" /><line stroke="black" stroke-width="1" x1="143.33333333333331" x2="143.33333333333331" y1="245.0" y2="255.0" /><line stroke="black" stroke-width="1" x1="190.0" x2="190.0" y1="245.0" y2="255.0" /><line stroke="black" stroke-width="1" x1="236.66666666666666" x2="236.66666666666666" y1="245.0" y2="255.0" /><line stroke="black" stroke-width="1" x1="283.3333333333333" x2="283.3333333333333" y1="245.0" y2="255.0" /><line stroke="black" stroke-width="1" x1="330.0" x2="330.0" y1="245.0" y2="255.0" /><line stroke="black" stroke-width="1" x1="376.6666666666667" x2="376.6666666666667" y1="245.0" y2="255.0" /><line stroke="black" stroke-width="1" x1="423.3333333333333" x2="423.3333333333333" y1="245.0" y2="255.0" /><line stroke="black" stroke-width="1" x1="470.0" x2="470.0" y1="245.0" y2="255.0" /><line stroke="black" stroke-width="1" x1="516.6666666666666" x2="516.6666666666666" y1="245.0" y2="255.0" /><line stroke="black" stroke-width="1" x1="563.3333333333333" x2="563.3333333333333" y1="245.0" y2="255.0" /><line stroke="black" stroke-width="1" x1="610.0" x2="610.0" y1="245.0" y2="255.0" /><line stroke="black" stroke-width="1" x1="656.6666666666667" x2="656.6666666666667" y1="245.0" y2="255.0" /><line stroke="black" stroke-width="1" x1="703.3333333333334" x2="703.3333333333334" y1="245.0" y2="255.0" /><rect fill="#4682B4" height="95.0" stroke="black" stroke-width="1" width="80.76923076923077" x="50.0" y="150" /><text font-family="Arial" font-size="10" font-weight="bold" text-anchor="middle" x="90.38461538461539" y="200.0">Relational Block</text><text font-family="Arial" font-size="8" text-anchor="middle" x="90.38461538461539" y="215.0">4 trials x 3500ms</text><text font-family="Arial" font-size="10" text-anchor="middle" x="90.38461538461539" y="230.0">+ ITI</text><rect fill="#FF6347" height="95.0" stroke="black" stroke-width="1" width="80.76923076923077" x="130.76923076923077" y="150" /><text font-family="Arial" font-size="10" font-weight="bold" text-anchor="middle" x="171.15384615384616" y="200.0">Matching Block</text><text font-family="Arial" font-size="8" text-anchor="middle" x="171.15384615384616" y="215.0">5 trials x 2800ms</text><text font-family="Arial" font-size="10" text-anchor="middle" x="171.15384615384616" y="230.0">+ ITI</text><rect fill="#E0E0E0" height="95.0" stroke="black" stroke-width="1" width="71.7948717948718" x="211.53846153846155" y="150" /><text font-family="Arial" font-size="10" font-weight="bold" text-anchor="middle" x="247.43589743589746" y="200.0">Fixation</text><rect fill="#4682B4" height="95.0" stroke="black" stroke-width="1" width="80.76923076923077" x="283.3333333333333" y="150" /><text font-family="Arial" font-size="10" font-weight="bold" text-anchor="middle" x="323.71794871794873" y="200.0">Relational Block</text><text font-family="Arial" font-size="8" text-anchor="middle" x="323.71794871794873" y="215.0">4 trials x 3500ms</text><text font-family="Arial" font-size="10" text-anchor="middle" x="323.71794871794873" y="230.0">+ ITI</text><rect fill="#FF6347" height="95.0" stroke="black" stroke-width="1" width="80.76923076923077" x="364.1025641025641" y="150" /><text font-family="Arial" font-size="10" font-weight="bold" text-anchor="middle" x="404.48717948717945" y="200.0">Matching Block</text><text font-family="Arial" font-size="8" text-anchor="middle" x="404.48717948717945" y="215.0">5 trials x 2800ms</text><text font-family="Arial" font-size="10" text-anchor="middle" x="404.48717948717945" y="230.0">+ ITI</text><rect fill="#E0E0E0" height="95.0" stroke="black" stroke-width="1" width="71.7948717948718" x="444.87179487179486" y="150" /><text font-family="Arial" font-size="10" font-weight="bold" text-anchor="middle" x="480.7692307692308" y="200.0">Fixation</text><rect fill="#4682B4" height="95.0" stroke="black" stroke-width="1" width="80.76923076923077" x="516.6666666666666" y="150" /><text font-family="Arial" font-size="10" font-weight="bold" text-anchor="middle" x="557.051282051282" y="200.0">Relational Block</text><text font-family="Arial" font-size="8" text-anchor="middle" x="557.051282051282" y="215.0">4 trials x 3500ms</text><text font-family="Arial" font-size="10" text-anchor="middle" x="557.051282051282" y="230.0">+ ITI</text><rect fill="#FF6347" height="95.0" stroke="black" stroke-width="1" width="80.76923076923077" x="597.4358974358975" y="150" /><text font-family="Arial" font-size="10" font-weight="bold" text-anchor="middle" x="637.8205128205128" y="200.0">Matching Block</text><text font-family="Arial" font-size="8" text-anchor="middle" x="637.8205128205128" y="215.0">5 trials x 2800ms</text><text font-family="Arial" font-size="10" text-anchor="middle" x="637.8205128205128" y="230.0">+ ITI</text><rect fill="#E0E0E0" height="95.0" stroke="black" stroke-width="1" width="71.7948717948718" x="678.2051282051282" y="150" /><text font-family="Arial" font-size="10" font-weight="bold" text-anchor="middle" x="714.1025641025641" y="200.0">Fixation</text><text font-family="Arial" font-size="12" text-anchor="middle" x="400" y="300">- Each run contains 3 relational blocks, 3 matching blocks, and 3 fixation blocks (16s each)</text></svg>